<svg height='300px' width='300px'  fill="#000000" xmlns="http://www.w3.org/2000/svg" xmlns:xlink="http://www.w3.org/1999/xlink" version="1.1" x="0px" y="0px" viewBox="0 0 100 100" enable-background="new 0 0 100 100" xml:space="preserve"><g><path d="M47.305,74.923c-0.027,0-0.054-0.001-0.081-0.003c-1.349-0.108-2.694-0.33-4-0.658c-0.536-0.134-0.861-0.677-0.727-1.213   c0.134-0.537,0.68-0.858,1.213-0.727c1.2,0.301,2.436,0.504,3.674,0.604c0.551,0.044,0.961,0.526,0.917,1.077   C48.258,74.526,47.82,74.923,47.305,74.923z M51.191,74.918c-0.516,0-0.953-0.396-0.996-0.918c-0.045-0.55,0.364-1.033,0.915-1.079   c1.235-0.102,2.471-0.308,3.671-0.612c0.534-0.137,1.079,0.187,1.216,0.724c0.136,0.535-0.188,1.079-0.724,1.215   c-1.308,0.332-2.653,0.556-3.999,0.667C51.246,74.917,51.219,74.918,51.191,74.918z M39.785,73.034c-0.134,0-0.27-0.027-0.4-0.084   c-1.234-0.541-2.435-1.189-3.567-1.928c-0.462-0.302-0.593-0.921-0.291-1.384c0.303-0.463,0.923-0.594,1.385-0.291   c1.04,0.679,2.143,1.274,3.276,1.771c0.506,0.222,0.736,0.811,0.515,1.317C40.538,72.81,40.171,73.034,39.785,73.034z    M58.705,73.015c-0.385,0-0.752-0.223-0.916-0.598c-0.223-0.506,0.007-1.096,0.513-1.318c1.132-0.498,2.232-1.095,3.271-1.776   c0.463-0.302,1.082-0.174,1.384,0.288c0.303,0.462,0.174,1.082-0.288,1.385c-1.13,0.741-2.328,1.392-3.562,1.934   C58.976,72.987,58.839,73.015,58.705,73.015z M33.293,68.798c-0.242,0-0.484-0.087-0.676-0.263   c-0.994-0.913-1.92-1.914-2.751-2.978c-0.34-0.435-0.263-1.063,0.172-1.404c0.438-0.341,1.064-0.263,1.404,0.172   c0.764,0.977,1.613,1.897,2.526,2.735c0.407,0.374,0.435,1.006,0.061,1.413C33.832,68.689,33.563,68.798,33.293,68.798z    M65.185,68.768c-0.27,0-0.538-0.108-0.735-0.322c-0.374-0.406-0.349-1.039,0.058-1.413c0.912-0.84,1.761-1.763,2.522-2.741   c0.339-0.437,0.967-0.514,1.403-0.175c0.436,0.339,0.514,0.968,0.175,1.403c-0.829,1.065-1.753,2.068-2.745,2.983   C65.67,68.68,65.427,68.768,65.185,68.768z M28.521,62.692c-0.354,0-0.698-0.188-0.879-0.522c-0.646-1.186-1.196-2.433-1.637-3.707   c-0.181-0.522,0.097-1.091,0.618-1.272c0.523-0.181,1.091,0.096,1.272,0.619c0.404,1.169,0.91,2.315,1.502,3.404   c0.265,0.485,0.085,1.092-0.4,1.356C28.847,62.653,28.683,62.692,28.521,62.692z M69.946,62.65c-0.161,0-0.324-0.039-0.476-0.121   c-0.485-0.263-0.666-0.87-0.402-1.355c0.592-1.091,1.095-2.238,1.496-3.41c0.179-0.522,0.746-0.802,1.271-0.622   c0.522,0.179,0.801,0.748,0.622,1.27c-0.438,1.276-0.986,2.526-1.631,3.714C70.646,62.461,70.302,62.65,69.946,62.65z    M25.99,55.369c-0.479,0-0.903-0.346-0.985-0.835c-0.222-1.326-0.336-2.684-0.339-4.037c-0.001-0.553,0.445-1.001,0.998-1.002   c0,0,0.001,0,0.002,0c0.552,0,0.999,0.446,1,0.998c0.003,1.245,0.107,2.494,0.312,3.712c0.091,0.544-0.276,1.06-0.821,1.151   C26.101,55.364,26.045,55.369,25.99,55.369z M72.463,55.318c-0.054,0-0.109-0.004-0.164-0.014c-0.545-0.09-0.914-0.605-0.823-1.15   c0.201-1.217,0.304-2.465,0.304-3.711v-0.101c0-0.552,0.447-1,1-1s1,0.448,1,1v0.101c0,1.355-0.111,2.714-0.331,4.039   C73.367,54.971,72.943,55.318,72.463,55.318z M25.976,47.618c-0.054,0-0.107-0.004-0.162-0.013   c-0.545-0.089-0.915-0.603-0.826-1.148c0.219-1.333,0.55-2.657,0.984-3.933c0.178-0.522,0.747-0.802,1.269-0.625   c0.522,0.178,0.803,0.747,0.624,1.269c-0.398,1.172-0.702,2.387-0.902,3.611C26.881,47.27,26.457,47.618,25.976,47.618z    M72.445,47.469c-0.479,0-0.901-0.344-0.984-0.832c-0.209-1.225-0.521-2.438-0.927-3.605c-0.182-0.522,0.095-1.092,0.616-1.273   c0.519-0.181,1.091,0.094,1.272,0.616c0.442,1.272,0.782,2.593,1.009,3.927c0.093,0.544-0.272,1.061-0.817,1.154   C72.558,47.465,72.501,47.469,72.445,47.469z M28.473,40.281c-0.16,0-0.322-0.039-0.474-0.12c-0.486-0.262-0.668-0.869-0.405-1.355   c0.639-1.186,1.383-2.329,2.212-3.398c0.337-0.436,0.967-0.517,1.402-0.178c0.437,0.338,0.517,0.967,0.178,1.403   c-0.762,0.982-1.445,2.033-2.032,3.122C29.173,40.09,28.829,40.281,28.473,40.281z M69.902,40.151c-0.354,0-0.696-0.188-0.878-0.52   c-0.597-1.088-1.286-2.133-2.051-3.107c-0.342-0.435-0.266-1.063,0.169-1.404c0.434-0.341,1.063-0.265,1.403,0.169   c0.833,1.061,1.584,2.198,2.232,3.382c0.266,0.484,0.088,1.092-0.396,1.357C70.229,40.111,70.064,40.151,69.902,40.151z    M33.224,34.154c-0.269,0-0.537-0.108-0.734-0.321c-0.375-0.405-0.351-1.038,0.055-1.413c0.991-0.917,2.064-1.758,3.19-2.5   c0.462-0.305,1.081-0.176,1.385,0.285c0.304,0.461,0.177,1.082-0.285,1.385c-1.034,0.682-2.021,1.455-2.931,2.297   C33.711,34.066,33.467,34.154,33.224,34.154z M65.115,34.056c-0.241,0-0.482-0.086-0.675-0.262c-0.918-0.839-1.91-1.606-2.946-2.28   c-0.463-0.301-0.595-0.92-0.294-1.383c0.302-0.463,0.921-0.594,1.384-0.293c1.128,0.733,2.206,1.567,3.206,2.48   c0.407,0.372,0.437,1.005,0.063,1.413C65.656,33.946,65.386,34.056,65.115,34.056z M39.696,29.894c-0.384,0-0.75-0.222-0.915-0.596   c-0.224-0.505,0.004-1.096,0.509-1.319c1.236-0.547,2.525-0.994,3.832-1.327c0.533-0.138,1.079,0.186,1.216,0.721   s-0.187,1.08-0.722,1.216c-1.198,0.306-2.381,0.716-3.516,1.219C39.969,29.866,39.831,29.894,39.696,29.894z M58.612,29.833   c-0.133,0-0.268-0.027-0.398-0.083c-1.137-0.495-2.323-0.897-3.526-1.197c-0.536-0.133-0.862-0.676-0.729-1.211   c0.134-0.537,0.677-0.866,1.212-0.729c1.311,0.326,2.604,0.764,3.843,1.303c0.506,0.22,0.738,0.81,0.518,1.316   C59.366,29.608,58.999,29.833,58.612,29.833z M47.202,27.973c-0.514,0-0.951-0.394-0.995-0.915   c-0.047-0.55,0.361-1.035,0.911-1.082c1.343-0.114,2.725-0.117,4.053-0.013c0.551,0.044,0.961,0.525,0.918,1.076   c-0.044,0.55-0.519,0.963-1.076,0.918c-1.221-0.097-2.492-0.094-3.725,0.012C47.259,27.972,47.23,27.973,47.202,27.973z"></path></g></svg>