<svg height='300px' width='300px'  fill="#000000" xmlns="http://www.w3.org/2000/svg" viewBox="0 0 100 100" x="0px" y="0px"><path d="m 54.745596,7.1487701 c 0,1.0935657 -0.88652,1.9800763 -1.980083,1.9800763 -1.093562,0 -1.980072,-0.8865106 -1.980072,-1.9800763 0,-1.093566 0.88651,-1.9800765 1.980072,-1.9800765 1.093563,0 1.980083,0.8865105 1.980083,1.9800765 z" color="#000"></path><path d="m 46.335626,7.3920676 c 0,1.0935658 -0.886509,1.9800756 -1.980072,1.9800756 -1.093573,0 -1.980083,-0.8865098 -1.980083,-1.9800756 0,-1.0935659 0.88651,-1.9800767 1.980083,-1.9800767 1.093563,0 1.980072,0.8865108 1.980072,1.9800767 z" color="#000"></path><path d="m 38.134717,9.2713934 c 0,1.0935666 -0.88651,1.9800756 -1.980073,1.9800756 -1.093573,0 -1.980082,-0.886509 -1.980082,-1.9800756 0,-1.0935668 0.886509,-1.9800764 1.980082,-1.9800764 1.093563,0 1.980073,0.8865096 1.980073,1.9800764 z" color="#000"></path><path d="m 63.041434,8.5508507 c 0,1.0935669 -0.886509,1.9800763 -1.980072,1.9800763 -1.093573,0 -1.980082,-0.8865094 -1.980082,-1.9800763 0,-1.0935654 0.886509,-1.9800752 1.980082,-1.9800752 1.093563,0 1.980072,0.8865098 1.980072,1.9800752 z" color="#000"></path><path d="m 30.45802,12.714527 c 0,1.093566 -0.886509,1.980076 -1.980072,1.980076 -1.093566,0 -1.980076,-0.88651 -1.980076,-1.980076 0,-1.093567 0.88651,-1.980077 1.980076,-1.980077 1.093563,0 1.980072,0.88651 1.980072,1.980077 z" color="#000"></path><path d="m 23.600559,17.589149 c 0,1.093567 -0.88652,1.980076 -1.980083,1.980076 -1.093563,0 -1.980072,-0.886509 -1.980072,-1.980076 0,-1.093566 0.886509,-1.980077 1.980072,-1.980077 1.093563,0 1.980083,0.886511 1.980083,1.980077 z" color="#000"></path><path d="m 17.82585,23.707933 c 0,1.093566 -0.88651,1.980075 -1.980082,1.980075 -1.093563,0 -1.980073,-0.886509 -1.980073,-1.980075 0,-1.093566 0.88651,-1.980079 1.980073,-1.980079 1.093572,0 1.980082,0.886513 1.980082,1.980079 z" color="#000"></path><path d="m 94.348007,44.52424 c 0,1.093567 -0.886509,1.980077 -1.980072,1.980077 -1.093573,0 -1.980082,-0.88651 -1.980082,-1.980077 0,-1.093565 0.886509,-1.980075 1.980082,-1.980075 1.093563,0 1.980072,0.88651 1.980072,1.980075 z" color="#000"></path><path d="m 70.904339,11.54443 c 0,1.093567 -0.88651,1.980077 -1.980072,1.980077 -1.093573,0 -1.980083,-0.88651 -1.980083,-1.980077 0,-1.093565 0.88651,-1.9800761 1.980083,-1.9800761 1.093562,0 1.980072,0.8865111 1.980072,1.9800761 z" color="#000"></path><path d="m 78.032142,16.014465 c 0,1.093566 -0.88651,1.980077 -1.980073,1.980077 -1.093573,0 -1.980082,-0.886511 -1.980082,-1.980077 0,-1.093567 0.886509,-1.980076 1.980082,-1.980076 1.093563,0 1.980073,0.886509 1.980073,1.980076 z" color="#000"></path><path d="m 93.189222,61.230049 c 0,1.093566 -0.886509,1.980076 -1.980072,1.980076 -1.093573,0 -1.980083,-0.88651 -1.980083,-1.980076 0,-1.093565 0.88651,-1.980076 1.980083,-1.980076 1.093563,0 1.980072,0.886511 1.980072,1.980076 z" color="#000"></path><path d="m 25.519317,83.914223 c 0,1.093567 -0.88651,1.980078 -1.980073,1.980078 -1.093563,0 -1.980082,-0.886511 -1.980082,-1.980078 0,-1.093564 0.886519,-1.980075 1.980082,-1.980075 1.093563,0 1.980073,0.886511 1.980073,1.980075 z" color="#000"></path><path d="m 92.468681,36.323332 c 0,1.093567 -0.88651,1.980076 -1.980083,1.980076 -1.093563,0 -1.980072,-0.886509 -1.980072,-1.980076 0,-1.093565 0.886509,-1.980075 1.980072,-1.980075 1.093573,0 1.980083,0.88651 1.980083,1.980075 z" color="#000"></path><path d="m 94.591306,52.93421 c 0,1.093566 -0.88651,1.980076 -1.980078,1.980076 -1.093573,0 -1.980082,-0.88651 -1.980082,-1.980076 0,-1.093566 0.886509,-1.980076 1.980082,-1.980076 1.093568,0 1.980078,0.88651 1.980078,1.980076 z" color="#000"></path><path d="m 90.195644,69.092954 c 0,1.093567 -0.88651,1.980076 -1.980072,1.980076 -1.093573,0 -1.980083,-0.886509 -1.980083,-1.980076 0,-1.093565 0.88651,-1.980075 1.980083,-1.980075 1.093562,0 1.980072,0.88651 1.980072,1.980075 z" color="#000"></path><path d="m 19.400533,78.139516 c 0,1.093563 -0.88651,1.980072 -1.980073,1.980072 -1.093573,0 -1.980082,-0.886509 -1.980082,-1.980072 0,-1.093566 0.886509,-1.980076 1.980082,-1.980076 1.093563,0 1.980073,0.88651 1.980073,1.980076 z" color="#000"></path><path d="m 32.647114,88.384259 c 0,1.093567 -0.886509,1.980077 -1.980072,1.980077 -1.093563,0 -1.980072,-0.88651 -1.980072,-1.980077 0,-1.093565 0.886509,-1.980075 1.980072,-1.980075 1.093563,0 1.980072,0.88651 1.980072,1.980075 z" color="#000"></path><path d="m 89.025543,28.646639 c 0,1.093567 -0.88651,1.980077 -1.980073,1.980077 -1.093563,0 -1.980072,-0.88651 -1.980072,-1.980077 0,-1.093566 0.886509,-1.980075 1.980072,-1.980075 1.093563,0 1.980073,0.886509 1.980073,1.980075 z" color="#000"></path><path d="m 11.082778,63.605357 c 0,1.093567 -0.88651,1.980075 -1.980073,1.980075 -1.0935728,0 -1.9800824,-0.886508 -1.9800824,-1.980075 0,-1.093566 0.8865096,-1.980077 1.9800824,-1.980077 1.093563,0 1.980073,0.886511 1.980073,1.980077 z" color="#000"></path><path d="m 84.150925,21.789174 c 0,1.093567 -0.88651,1.980076 -1.980073,1.980076 -1.093563,0 -1.980082,-0.886509 -1.980082,-1.980076 0,-1.093565 0.886519,-1.980076 1.980082,-1.980076 1.093563,0 1.980073,0.886511 1.980073,1.980076 z" color="#000"></path><path d="m 85.725608,76.220757 c 0,1.093567 -0.886509,1.980076 -1.980082,1.980076 -1.093563,0 -1.980073,-0.886509 -1.980073,-1.980076 0,-1.093565 0.88651,-1.980075 1.980073,-1.980075 1.093573,0 1.980082,0.88651 1.980082,1.980075 z" color="#000"></path><path d="m 79.9509,82.33954 c 0,1.093567 -0.88651,1.980076 -1.980073,1.980076 -1.093573,0 -1.980082,-0.886509 -1.980082,-1.980076 0,-1.093565 0.886509,-1.980076 1.980082,-1.980076 1.093563,0 1.980073,0.886511 1.980073,1.980076 z" color="#000"></path><path d="m 14.525906,71.282049 c 0,1.093566 -0.88651,1.980077 -1.980073,1.980077 -1.093563,0 -1.980072,-0.886511 -1.980072,-1.980077 0,-1.093565 0.886509,-1.980075 1.980072,-1.980075 1.093563,0 1.980073,0.88651 1.980073,1.980075 z" color="#000"></path><path d="m 9.2034461,55.404447 c 0,1.093567 -0.8865096,1.980076 -1.9800724,1.980076 -1.0935629,0 -1.9800725,-0.88651 -1.9800725,-1.980076 0,-1.093566 0.8865096,-1.980075 1.9800725,-1.980075 1.0935628,0 1.9800724,0.886509 1.9800724,1.980075 z" color="#000"></path><path d="m 48.805863,92.779923 c 0,1.093566 -0.88651,1.980077 -1.980073,1.980077 -1.093563,0 -1.980082,-0.886511 -1.980082,-1.980077 0,-1.093565 0.886519,-1.980076 1.980082,-1.980076 1.093563,0 1.980073,0.886511 1.980073,1.980076 z" color="#000"></path><path d="m 57.215832,92.536626 c 0,1.093562 -0.88651,1.980072 -1.980072,1.980072 -1.093573,0 -1.980083,-0.88651 -1.980083,-1.980072 0,-1.093566 0.88651,-1.980076 1.980083,-1.980076 1.093562,0 1.980072,0.88651 1.980072,1.980076 z" color="#000"></path><path d="m 40.510019,91.377836 c 0,1.093567 -0.88651,1.980077 -1.980072,1.980077 -1.093563,0 -1.980073,-0.88651 -1.980073,-1.980077 0,-1.093565 0.88651,-1.980075 1.980073,-1.980075 1.093562,0 1.980072,0.88651 1.980072,1.980075 z" color="#000"></path><path d="m 8.9601545,46.994479 c 0,1.093566 -0.8865092,1.980075 -1.9800721,1.980075 C 5.8865096,48.974554 5,48.088045 5,46.994479 c 0,-1.093566 0.8865096,-1.980077 1.9800824,-1.980077 1.0935629,0 1.9800721,0.886511 1.9800721,1.980077 z" color="#000"></path><path d="m 13.355809,30.835733 c 0,1.093566 -0.886509,1.980077 -1.980072,1.980077 -1.093563,0 -1.9800726,-0.886511 -1.9800726,-1.980077 0,-1.093564 0.8865096,-1.980075 1.9800726,-1.980075 1.093563,0 1.980072,0.886511 1.980072,1.980075 z" color="#000"></path><path d="m 10.362231,38.698639 c 0,1.093567 -0.8865095,1.980075 -1.9800723,1.980075 -1.0935629,0 -1.9800725,-0.886509 -1.9800725,-1.980075 0,-1.093566 0.8865096,-1.980075 1.9800725,-1.980075 1.0935628,0 1.9800723,0.886509 1.9800723,1.980075 z" color="#000"></path><path d="m 73.093434,87.214162 c 0,1.093567 -0.886509,1.980076 -1.980082,1.980076 -1.093563,0 -1.980073,-0.886509 -1.980073,-1.980076 0,-1.093565 0.88651,-1.980075 1.980073,-1.980075 1.093573,0 1.980082,0.88651 1.980082,1.980075 z" color="#000"></path><path d="m 65.416742,90.657292 c 0,1.093568 -0.88651,1.980078 -1.980073,1.980078 -1.093572,0 -1.980082,-0.88651 -1.980082,-1.980078 0,-1.093565 0.88651,-1.980076 1.980082,-1.980076 1.093563,0 1.980073,0.886511 1.980073,1.980076 z" color="#000"></path></svg>